<svg xmlns="http://www.w3.org/2000/svg" xmlns:xlink="http://www.w3.org/1999/xlink" width="32" height="32" viewBox="0 0 32 32"><defs><path id="nzv1a" d="M150 1114a8 8 0 0 1 8-8h16a8 8 0 0 1 8 8v16a8 8 0 0 1-8 8h-16a8 8 0 0 1-8-8z"/><path id="nzv1b" d="M164.097 1128v-5.874H162v-2.094h2.097v-1.933c0-1.95 1.151-3.099 2.89-3.099.834 0 1.514.09 1.723.117v2.19h-1.4c-.946 0-1.123.468-1.123 1.128v1.597h2.423l-.342 2.094h-2.081V1128z"/></defs><g><g transform="translate(-150 -1106)"><use fill="#3b5998" xlink:href="#nzv1a"/></g><g transform="translate(-150 -1106)"><use fill="#fff" xlink:href="#nzv1b"/><use fill="#fff" fill-opacity="0" stroke="#fff" stroke-miterlimit="50" stroke-width=".5" xlink:href="#nzv1b"/></g></g></svg>