<svg xmlns="http://www.w3.org/2000/svg" xmlns:xlink="http://www.w3.org/1999/xlink" width="33" height="33" viewBox="0 0 33 33"><defs><path id="3vkwa" d="M149.5 1175.5a8 8 0 0 1 8-8h16a8 8 0 0 1 8 8v16a8 8 0 0 1-8 8h-16a8 8 0 0 1-8-8z"/><path id="3vkwb" d="M174.612 1182.702h-1.852v-1.852h-1.348v1.852h-1.852v1.347h1.852v1.853h1.348v-1.853h1.852z"/><path id="3vkwc" d="M162.37 1184.766h2.843c-.327 1.32-1.332 2.056-2.868 2.056-1.816 0-3.293-1.45-3.293-3.233 0-1.783 1.477-3.234 3.293-3.234.794 0 1.56.281 2.159.792l1.366-1.542a5.429 5.429 0 0 0-3.525-1.295c-2.964 0-5.375 2.368-5.375 5.279 0 2.91 2.41 5.278 5.375 5.278 3.03 0 5.066-2.06 5.066-5.124v-1.022h-5.04z"/></defs><g><g transform="translate(-149 -1167)"><use fill="#ea4236" xlink:href="#3vkwa"/></g><g transform="translate(-149 -1167)"><use fill="#fff" xlink:href="#3vkwb"/><use fill="#fff" fill-opacity="0" stroke="#fff" stroke-miterlimit="50" stroke-width=".5" xlink:href="#3vkwb"/></g><g transform="translate(-149 -1167)"><use fill="#fff" xlink:href="#3vkwc"/></g></g></svg>