<svg xmlns="http://www.w3.org/2000/svg" xmlns:xlink="http://www.w3.org/1999/xlink" width="32" height="32" viewBox="0 0 32 32"><defs><path id="u8x6a" d="M150 1237a8 8 0 0 1 8-8h16a8 8 0 0 1 8 8v16a8 8 0 0 1-8 8h-16a8 8 0 0 1-8-8z"/><path id="u8x6b" d="M172 1250h-2.245v-3.796c0-.906-.014-2.07-1.166-2.07-1.168 0-1.347.986-1.347 2.005V1250H165v-7.806h2.152v1.067h.03c.3-.614 1.033-1.261 2.125-1.261 2.273 0 2.693 1.616 2.693 3.719zm-9.5-8a1.5 1.5 0 1 1-.002-2.999 1.5 1.5 0 0 1 .003 2.999zm-1.5 8v-7h2v7z"/></defs><g><g transform="translate(-150 -1229)"><use fill="#0077b7" xlink:href="#u8x6a"/></g><g transform="translate(-150 -1229)"><use fill="#fff" xlink:href="#u8x6b"/></g></g></svg>