<svg xmlns="http://www.w3.org/2000/svg" xmlns:xlink="http://www.w3.org/1999/xlink" width="32" height="33" viewBox="0 0 32 33"><defs><path id="mef7a" d="M150 1298.5a8 8 0 0 1 8-8h16a8 8 0 0 1 8 8v16a8 8 0 0 1-8 8h-16a8 8 0 0 1-8-8z"/><path id="mef7b" d="M171.35 1302.24a2.803 2.803 0 0 0 1.263-1.537 5.87 5.87 0 0 1-1.824.674 2.915 2.915 0 0 0-2.096-.877c-1.587 0-2.873 1.243-2.873 2.777 0 .218.026.43.075.633a8.25 8.25 0 0 1-5.92-2.902c-.247.41-.39.888-.39 1.396 0 .964.508 1.814 1.279 2.312a2.935 2.935 0 0 1-1.301-.348v.035c0 1.346.99 2.468 2.303 2.723a2.974 2.974 0 0 1-1.297.048c.366 1.103 1.427 1.907 2.683 1.929a5.89 5.89 0 0 1-3.567 1.188c-.232 0-.46-.013-.685-.039a8.332 8.332 0 0 0 4.403 1.248c5.283 0 8.172-4.232 8.172-7.901 0-.12-.004-.24-.01-.36a5.71 5.71 0 0 0 1.435-1.437 5.878 5.878 0 0 1-1.65.438z"/></defs><g><g transform="translate(-150 -1290)"><use fill="#5ea9dd" xlink:href="#mef7a"/></g><g transform="translate(-150 -1290)"><use fill="#fff" xlink:href="#mef7b"/></g></g></svg>