<svg xmlns="http://www.w3.org/2000/svg" xmlns:xlink="http://www.w3.org/1999/xlink" width="17" height="20" viewBox="0 0 17 20"><defs><path id="mi8aa" d="M1229.853 1344.156h-.833v-.843h.833zm-4.156 0h-.844v-.843h.844zm4.573-2.343l1.083-1.084a.403.403 0 0 0 0-.583.403.403 0 0 0-.583 0l-1.25 1.25c-.583-.417-1.333-.583-2.167-.583-.833 0-1.583.166-2.25.5l-1.166-1.25c-.167-.084-.5-.084-.667 0-.083.166-.083.5 0 .666l1.083 1.084c-1.166.916-2 2.333-2 4h10c0-1.667-.833-3.167-2.083-4zm4.167 4.833c-.667 0-1.25.583-1.25 1.25v5.833c0 .667.583 1.25 1.25 1.25.666 0 1.25-.583 1.25-1.25v-5.833c0-.667-.584-1.25-1.25-1.25zm-14.167 0c-.667 0-1.25.583-1.25 1.25v5.833c0 .667.583 1.25 1.25 1.25s1.25-.583 1.25-1.25v-5.833c0-.667-.583-1.25-1.25-1.25zm2.083 8.333c0 .5.334.834.834.834h.833v2.916c0 .667.583 1.25 1.25 1.25s1.25-.583 1.25-1.25v-2.916h1.667v2.916c0 .667.583 1.25 1.25 1.25.666 0 1.25-.583 1.25-1.25v-2.916h.833c.5 0 .833-.334.833-.834v-8.333h-10z"/></defs><g><g transform="translate(-1219 -1340)"><use fill="#28ce7a" xlink:href="#mi8aa"/></g></g></svg>