<svg xmlns="http://www.w3.org/2000/svg" xmlns:xlink="http://www.w3.org/1999/xlink" width="17" height="20" viewBox="0 0 17 20"><defs><path id="8r7ma" d="M1125.11 1342.194c.7-.847 1.173-2.022 1.044-3.194-1.008.04-2.23.67-2.953 1.515-.649.75-1.217 1.945-1.065 3.094 1.126.088 2.274-.57 2.975-1.415zm2.512 7.433c-.026-2.533 2.065-3.748 2.159-3.808-1.175-1.72-3.005-1.955-3.657-1.982-1.558-.158-3.04.917-3.83.917-.788 0-2.008-.894-3.3-.87-1.697.025-3.263.987-4.137 2.507-1.763 3.06-.451 7.595 1.268 10.077.84 1.215 1.841 2.58 3.156 2.53 1.267-.05 1.746-.819 3.277-.819 1.531 0 1.962.82 3.302.795 1.363-.026 2.226-1.239 3.06-2.457.965-1.41 1.362-2.775 1.385-2.845-.03-.013-2.657-1.02-2.683-4.045z"/></defs><g><g transform="translate(-1114 -1339)"><use fill="#28ce7a" xlink:href="#8r7ma"/></g></g></svg>