<svg xmlns="http://www.w3.org/2000/svg" xmlns:xlink="http://www.w3.org/1999/xlink" width="15" height="9" viewBox="0 0 15 9"><defs><path id="69jla" d="M325.732 2257.363l-5.102-5.059a1.035 1.035 0 0 0-.69-.304c-.23 0-.46.114-.652.304-.384.38-.384.913 0 1.293l4.449 4.413-4.45 4.412c-.383.38-.383.912 0 1.293.384.38.96.38 1.343 0l5.102-5.059a.887.887 0 0 0 .268-.646.83.83 0 0 0-.268-.647z"/></defs><g><g transform="rotate(90 1291.5 974)"><use fill="#cdced2" xlink:href="#69jla"/><use fill="#fff" fill-opacity="0" stroke="#cdced2" stroke-miterlimit="50" stroke-width=".5" xlink:href="#69jla"/></g></g></svg>