<svg xmlns="http://www.w3.org/2000/svg" xmlns:xlink="http://www.w3.org/1999/xlink" width="30" height="30" viewBox="0 0 30 30"><defs><path id="son5a" d="M140.027 684.274c-6.756 0-12.248-5.492-12.248-12.247 0-6.756 5.492-12.248 12.248-12.248 6.755 0 12.247 5.492 12.247 12.248 0 6.755-5.492 12.247-12.247 12.247zm.005-27.274c-8.274 0-15.032 6.758-15.032 15.032 0 8.273 6.758 14.968 15.032 14.968 8.273 0 14.968-6.695 14.968-14.968 0-8.274-6.695-15.032-14.968-15.032z"/><path id="son5b" d="M142.64 677.082l-1.403.588 1.823-8.686c.21-.914-.842-1.894-1.964-1.306l-3.436 1.763a1.216 1.216 0 0 0-.491 1.698c.35.588 1.192.784 1.823.457l.842-.392-1.753 8.294c-.14.718.49 1.502 1.332 1.502.21 0 .42-.065.561-.13l3.717-1.503c.702-.26.982-.98.702-1.632-.281-.653-1.052-.914-1.754-.653z"/><path id="son5c" d="M141.5 666c.833 0 1.5-.667 1.5-1.5s-.667-1.5-1.5-1.5-1.5.667-1.5 1.5.667 1.5 1.5 1.5z"/></defs><g><g transform="translate(-125 -657)"><use fill="#cacaca" xlink:href="#son5a"/></g><g transform="translate(-125 -657)"><use fill="#cacaca" xlink:href="#son5b"/></g><g transform="translate(-125 -657)"><use fill="#cacaca" xlink:href="#son5c"/></g></g></svg>