<svg xmlns="http://www.w3.org/2000/svg" xmlns:xlink="http://www.w3.org/1999/xlink" width="20" height="20" viewBox="0 0 20 20"><defs><path id="x5b0a" d="M987.021 138.19c-4.505 0-8.168-3.664-8.168-8.169 0-4.505 3.663-8.168 8.168-8.168 4.505 0 8.168 3.663 8.168 8.168 0 4.505-3.663 8.168-8.168 8.168zm0-18.19c-5.516 0-10.021 4.505-10.021 10.021 0 5.516 4.505 9.979 10.021 9.979a9.973 9.973 0 0 0 9.979-9.979c0-5.516-4.463-10.021-9.979-10.021z"/><path id="x5b0b" d="M988.76 133.388l-.936.392 1.216-5.79c.14-.61-.561-1.263-1.31-.871l-2.29 1.175a.81.81 0 0 0-.327 1.132c.233.392.794.523 1.215.305l.561-.261-1.169 5.529c-.093.479.328 1.001.889 1.001.14 0 .28-.044.374-.087l2.478-1.001c.467-.175.654-.653.467-1.089-.187-.435-.701-.61-1.169-.435z"/><path id="x5b0c" d="M988 126c.556 0 1-.444 1-1s-.444-1-1-1-1 .444-1 1 .444 1 1 1z"/></defs><g><g transform="translate(-977 -120)"><use fill="#28ce7a" xlink:href="#x5b0a"/></g><g transform="translate(-977 -120)"><use fill="#28ce7a" xlink:href="#x5b0b"/></g><g transform="translate(-977 -120)"><use fill="#28ce7a" xlink:href="#x5b0c"/></g></g></svg>