<svg xmlns="http://www.w3.org/2000/svg" xmlns:xlink="http://www.w3.org/1999/xlink" width="9" height="5" viewBox="0 0 9 5"><defs><path id="rahja" d="M331.805 94.963l-3.634-3.738a.725.725 0 0 0-.492-.225c-.164 0-.327.084-.464.225a.66.66 0 0 0 0 .955l3.17 3.26-3.17 3.26a.66.66 0 0 0 0 .956.648.648 0 0 0 .956 0l3.634-3.738a.668.668 0 0 0 .191-.478.625.625 0 0 0-.19-.477z"/></defs><g><g transform="rotate(90 213.5 -113.5)"><g transform="rotate(180 329.5 95.5)"><use fill="#7fcfff" xlink:href="#rahja"/></g></g></g></svg>