<svg xmlns="http://www.w3.org/2000/svg" xmlns:xlink="http://www.w3.org/1999/xlink" width="41" height="40" viewBox="0 0 41 40"><defs><path id="2056a" d="M291.066 1539.494c0 .646-.526 1.172-1.172 1.172h-32.978a1.174 1.174 0 0 1-1.172-1.172v-14.228c0-.646.526-1.172 1.172-1.172h32.978c.646 0 1.172.526 1.172 1.172zm-34.475-21.972c.137 1.364.459 2.788.959 4.228h-.634a3.5 3.5 0 0 0-1.145.192c.084-1.512.36-2.997.82-4.42zm3.556-6.128l10.478 10.356H260.05c-1.642-4.145-1.596-7.887.098-10.356zm19.942 3.26l-6.616 6.615-11.666-11.53c4.23-2.863 12.084-.789 18.282 4.914zm-6.69-9.31c4.35 0 8.443 1.536 11.652 4.348l-3.303 3.302c-4.332-4.017-9.363-6.378-13.807-6.805a17.901 17.901 0 0 1 5.459-.845zm12.26 16.406h-9.352l5.44-5.44c1.565 1.697 2.892 3.542 3.912 5.44zm5.37.192a3.5 3.5 0 0 0-1.145-.192h-1.599c-1.184-2.488-2.852-4.912-4.88-7.098l3.303-3.303a17.515 17.515 0 0 1 4.32 10.593zm2.301 2.627c.955-11.553-8.104-21.569-19.93-21.569-11.98 0-20.871 10.18-19.93 21.57a3.52 3.52 0 0 0-.07.696v14.218a3.52 3.52 0 0 0 3.516 3.516h32.968a3.52 3.52 0 0 0 3.516-3.516v-14.218c0-.239-.024-.472-.07-.697z"/><path id="2056b" d="M264.106 1535.965h-3.672v-8.203a1.172 1.172 0 0 0-2.344 0v9.375c0 .647.525 1.172 1.172 1.172h4.844a1.172 1.172 0 0 0 0-2.344z"/><path id="2056c" d="M268.792 1526.59c-.647 0-1.172.525-1.172 1.172v9.375a1.172 1.172 0 0 0 2.344 0v-9.375c0-.647-.525-1.172-1.172-1.172z"/><path id="2056d" d="M278.454 1526.625a1.172 1.172 0 0 0-1.421.853l-1.207 4.827-1.207-4.827a1.172 1.172 0 0 0-2.274.568l2.344 9.375c.294 1.178 1.979 1.18 2.274 0l2.344-9.375a1.172 1.172 0 0 0-.853-1.42z"/><path id="2056e" d="M287.54 1533.621a1.172 1.172 0 0 0 0-2.344h-3.516v-2.343h3.515a1.172 1.172 0 0 0 0-2.344h-4.687c-.647 0-1.172.525-1.172 1.172v9.375c0 .647.525 1.172 1.172 1.172h4.687a1.172 1.172 0 0 0 0-2.344h-3.515v-2.344z"/></defs><g><g transform="translate(-253 -1503)"><g><use fill="#28ce7a" xlink:href="#2056a"/></g><g><use fill="#28ce7a" xlink:href="#2056b"/></g><g><use fill="#28ce7a" xlink:href="#2056c"/></g><g><use fill="#28ce7a" xlink:href="#2056d"/></g><g><use fill="#28ce7a" xlink:href="#2056e"/></g></g></g></svg>