<svg xmlns="http://www.w3.org/2000/svg" xmlns:xlink="http://www.w3.org/1999/xlink" width="31" height="41" viewBox="0 0 31 41"><defs><path id="yo0fa" d="M396.806 1634.917a1.362 1.362 0 0 1-1.925 0l-1.78-1.782-1.778 1.782a1.362 1.362 0 1 1-1.925-1.93l3.717-3.723 3.691 3.724c.53.532.53 1.397 0 1.929zm1.672-3.601l-5.357-5.396-5.393 5.393a3.726 3.726 0 0 0 0 5.264 3.734 3.734 0 0 0 4.193.747v2.402h2.361v-2.402a3.729 3.729 0 0 0 4.193-.747 3.726 3.726 0 0 0 .003-5.261z"/><path id="yo0fb" d="M385.61 1623.27v-2.38h2.36v2.38z"/><path id="yo0fc" d="M387.925 1653.849v-2.361h18.107v-28.406h2.36v30.767zm-4.724-4.722v-30.766h20.468v30.766zm22.831-28.406V1616H380.84v35.488h4.722v4.721h25.192v-35.488z"/><path id="yo0fd" d="M398.76 1646.55v-2.38h2.36v2.38z"/></defs><g><g transform="translate(-380 -1616)"><g><use fill="#28ce7a" xlink:href="#yo0fa"/></g><g transform="rotate(-45 387 1622)"><use fill="#28ce7a" xlink:href="#yo0fb"/></g><g><use fill="#28ce7a" xlink:href="#yo0fc"/></g><g transform="rotate(-45 400 1645.5)"><use fill="#28ce7a" xlink:href="#yo0fd"/></g></g></g></svg>