<svg xmlns="http://www.w3.org/2000/svg" xmlns:xlink="http://www.w3.org/1999/xlink" width="41" height="40" viewBox="0 0 41 40"><defs><path id="w5nba" d="M534.44 1526.84l-6.701-1.161c.218-.857.334-1.755.334-2.68 0-.923-.116-1.82-.334-2.678l6.7-1.162a17.81 17.81 0 0 1 .417 3.841c0 1.308-.142 2.594-.417 3.84zm-4.749 8.651a17.615 17.615 0 0 1-6.385 4.095l-1.194-6.883a10.957 10.957 0 0 0 4.79-4.791l6.884 1.194a17.615 17.615 0 0 1-4.095 6.385zm3.784-.074a3.862 3.862 0 0 1-3.858 3.858h-.8a20.207 20.207 0 0 0 4.658-4.659zm-16.275 5.24c-1.308 0-2.594-.143-3.84-.418l1.161-6.7c.857.218 1.755.334 2.68.334.923 0 1.82-.116 2.678-.334l1.162 6.7a17.81 17.81 0 0 1-3.841.417zm-6.096-1.071a17.615 17.615 0 0 1-6.385-4.095 17.615 17.615 0 0 1-4.095-6.385l6.883-1.194a10.957 10.957 0 0 0 4.79 4.79zm-6.331-.311a3.862 3.862 0 0 1-3.858-3.858v-.8a20.207 20.207 0 0 0 4.659 4.658zm-4.812-12.434a17.812 17.812 0 0 1-.417-3.841c0-1.308.142-2.594.417-3.84l6.7 1.161a10.856 10.856 0 0 0-.334 2.68c0 .923.116 1.82.334 2.678zm4.758-16.322a17.615 17.615 0 0 1 6.385-4.095l1.194 6.883a10.956 10.956 0 0 0-4.79 4.791l-6.884-1.194a17.615 17.615 0 0 1 4.095-6.385zm-3.804.054a3.862 3.862 0 0 1 3.858-3.858h.8a20.214 20.214 0 0 0-4.658 4.659zm16.285-5.23c1.308 0 2.594.143 3.84.418l-1.161 6.7a10.856 10.856 0 0 0-2.68-.334c-.923 0-1.82.116-2.678.334l-1.162-6.7a17.812 17.812 0 0 1 3.841-.417zm8.53 17.657c0 4.703-3.827 8.53-8.53 8.53-4.703 0-8.53-3.827-8.53-8.53 0-4.703 3.827-8.53 8.53-8.53 4.703 0 8.53 3.827 8.53 8.53zm-2.424-16.576a17.615 17.615 0 0 1 6.385 4.095 17.615 17.615 0 0 1 4.095 6.385l-6.883 1.194a10.957 10.957 0 0 0-4.79-4.79zm10.169 4.149v.8a20.208 20.208 0 0 0-4.659-4.658h.801a3.862 3.862 0 0 1 3.858 3.858zm2.354 5.122v-5.114a6.217 6.217 0 0 0-6.21-6.21h-5.114A19.986 19.986 0 0 0 517.2 1503c-2.54 0-5.009.471-7.305 1.371h-5.114a6.217 6.217 0 0 0-6.21 6.21v5.114A19.986 19.986 0 0 0 497.2 1523c0 2.54.471 5.009 1.371 7.305v5.114a6.217 6.217 0 0 0 6.21 6.21h5.114c2.296.9 4.764 1.371 7.305 1.371 2.54 0 5.009-.471 7.305-1.371h5.114a6.217 6.217 0 0 0 6.21-6.21v-5.114A19.986 19.986 0 0 0 537.2 1523c0-2.54-.471-5.009-1.371-7.305z"/></defs><g><g transform="translate(-497 -1503)"><g><use fill="#28ce7a" xlink:href="#w5nba"/></g></g></g></svg>