<svg xmlns="http://www.w3.org/2000/svg" xmlns:xlink="http://www.w3.org/1999/xlink" width="41" height="40" viewBox="0 0 41 40"><defs><path id="v60ta" d="M655.943 1528.405l-8.01 9.801a5.872 5.872 0 0 1-4.706 2.377H632.79c-2.647 0-4.83-.384-7.174-1.043v-8.952l.814-.717a5.915 5.915 0 0 1 7.8 0c1 .88 2.288 1.358 3.597 1.358h5.4a1.17 1.17 0 0 1 0 2.339h-8.307a1.17 1.17 0 0 0 0 2.338h9.091c.966 0 1.898-.404 2.559-1.11l7.556-7.858.006-.007.007-.007c.717-.77 2.025-.266 2.025.797 0 .248-.077.484-.221.684zm-20.895-8.947v8.088a8.256 8.256 0 0 0-4.716-1.47 8.256 8.256 0 0 0-4.716 1.47v-8.088zm-11.77-5.769c0-.644.524-1.169 1.168-1.169h10.602v4.6h-11.77zm9.267-8.35a2.39 2.39 0 0 1 2.12 1.255l1.94 3.588h-4.057c-.9 0-1.692-.478-2.12-1.28-.883-1.65.328-3.563 2.117-3.563zm7.18 7.181v16.37h-1.894c-.15 0-.298-.01-.444-.032v-16.338h2.338zm2.49-5.924a2.388 2.388 0 0 1 2.003-1.255c1.847-.085 3.13 1.875 2.229 3.562a2.37 2.37 0 0 1-2.117 1.278h-4.051zm9.291 12.862v6.85l-4.905 5.095a3.517 3.517 0 0 0-3.366-2.513h-1.171v-9.432zm1.16-6.938c.644 0 1.169.525 1.169 1.17v3.43h-11.771v-4.6h10.602zm-29.389 28.063h-2.338v-11.693h2.338zm30.558-16.167v-4.958h1.17a1.17 1.17 0 0 0 1.168-1.17v-4.599a3.512 3.512 0 0 0-3.507-3.508h-4.256c1.925-3.283-.544-7.351-4.3-7.175a4.71 4.71 0 0 0-3.95 2.476l-1.723 3.188-1.724-3.19a4.708 4.708 0 0 0-3.95-2.474c-3.755-.176-6.225 3.89-4.299 7.175h-4.018a3.512 3.512 0 0 0-3.507 3.508v4.6c0 .645.523 1.169 1.169 1.169h1.17v7.094h-3.509a1.17 1.17 0 0 0-1.169 1.17v14.03c0 .647.524 1.17 1.17 1.17h4.676c.575 0 1.051-.414 1.15-.96 2.292.628 4.776.96 7.196.96h10.441a8.224 8.224 0 0 0 6.533-3.254c.024-.029 8.023-9.813 8.046-9.843.458-.611.7-1.339.7-2.104 0-2.396-2.378-4.12-4.677-3.305z"/></defs><g><g transform="translate(-618 -1503)"><use fill="#cdced2" xlink:href="#v60ta"/></g></g></svg>