<svg xmlns="http://www.w3.org/2000/svg" xmlns:xlink="http://www.w3.org/1999/xlink" width="45" height="40" viewBox="0 0 45 40"><defs><path id="67nza" d="M147.987 1529.54l7.404 2.24a.925.925 0 0 1-.047.15c-.198.537-.604.838-1.264.941-2.433.386-6.47.142-6.508.142a1.128 1.128 0 0 0-.141 2.25c.179.009 4.32.263 7.007-.17 2.67-.424 3.433-2.767 3.292-4.245a1.132 1.132 0 0 0-.802-.98l-8.29-2.503c-4.093-1.233-8.582 1.045-8.771 1.139-.019.01-.047.019-.066.038l-8.252 4.979a1.13 1.13 0 0 0 .584 2.099c.198 0 .396-.056.585-.16l8.215-4.942c.358-.188 3.97-1.91 7.054-.979z"/><path id="67nzb" d="M175.387 1527.192c-.65-1.186-2.679-3.078-5.753-1.722-2.905 1.289-9.045 4.235-9.11 4.263a1.129 1.129 0 0 0 .98 2.033c.066-.028 6.168-2.965 9.045-4.235.82-.367 1.509-.367 2.103 0 .019.01.028.019.047.028l-15.382 11.247a5.147 5.147 0 0 1-3.81.922l-13.723-2.183c-.32-.047-.65.037-.906.245l-3.47 2.889a1.121 1.121 0 0 0-.142 1.59 1.133 1.133 0 0 0 1.594.141l3.075-2.56 13.222 2.109a7.414 7.414 0 0 0 5.508-1.327l16.41-11.99c.444-.34.585-.951.312-1.45z"/><path id="67nzc" d="M151.534 1516.53a4.306 4.306 0 0 1 3.066-1.271 4.328 4.328 0 0 1 3.065 7.388 4.306 4.306 0 0 1-3.065 1.27 4.306 4.306 0 0 1-3.066-1.27 4.328 4.328 0 0 1 0-6.118zm3.066 9.637a6.587 6.587 0 0 0 4.668-1.93 6.574 6.574 0 0 0 0-9.308A6.57 6.57 0 0 0 154.6 1513a6.587 6.587 0 0 0-4.669 1.93 6.574 6.574 0 0 0 0 9.308 6.587 6.587 0 0 0 4.669 1.93z"/><path id="67nzd" d="M161.109 1506.106a2.87 2.87 0 0 1 2.043-.847 2.87 2.87 0 0 1 2.043.847 2.89 2.89 0 0 1 0 4.075 2.87 2.87 0 0 1-2.043.847 2.87 2.87 0 0 1-2.043-.847 2.89 2.89 0 0 1 0-4.075zm2.038 7.172a5.12 5.12 0 0 0 3.64-1.506 5.133 5.133 0 0 0 0-7.266 5.12 5.12 0 0 0-3.64-1.506 5.12 5.12 0 0 0-3.64 1.506 5.133 5.133 0 0 0 0 7.266 5.098 5.098 0 0 0 3.64 1.506z"/></defs><g><g transform="translate(-131 -1503)"><g><use fill="#28ce7a" xlink:href="#67nza"/></g><g><use fill="#28ce7a" xlink:href="#67nzb"/></g><g><use fill="#28ce7a" xlink:href="#67nzc"/></g><g><use fill="#28ce7a" xlink:href="#67nzd"/></g></g></g></svg>