<svg xmlns="http://www.w3.org/2000/svg" xmlns:xlink="http://www.w3.org/1999/xlink" width="40" height="40" viewBox="0 0 40 40"><defs><path id="2jnsa" d="M763.156 1536.641v-15.626c0-.648-.524-1.172-1.172-1.172h-15.627c.602-8.096 7.38-14.5 15.627-14.5 8.641 0 15.671 7.03 15.671 15.671 0 8.247-6.403 15.026-14.499 15.627zm11.567-28.365a17.897 17.897 0 0 0-12.739-5.276 17.897 17.897 0 0 0-12.738 5.276 17.897 17.897 0 0 0-5.276 12.738c0 .648.525 1.172 1.172 1.172h15.67v15.671c0 .647.525 1.172 1.173 1.172 4.811 0 9.335-1.874 12.738-5.276a17.897 17.897 0 0 0 5.276-12.738c0-4.812-1.874-9.336-5.276-12.739z"/><path id="2jnsb" d="M756.205 1532.245l-6.374 6.374a15.094 15.094 0 0 1-2.238-1.594l8.612-8.553zm-.01 8.364a14.856 14.856 0 0 1-4.12-.92l4.12-4.13zm-11.892-7.574l6.24-6.241h4.026l-8.63 8.57a15.102 15.102 0 0 1-1.636-2.33zm-1.914-6.241h4.84l-3.977 3.976a14.921 14.921 0 0 1-.863-3.976zm14.988-2.344h-16.205c-.647 0-1.172.525-1.172 1.172 0 4.641 1.808 9.005 5.09 12.287a17.263 17.263 0 0 0 12.287 5.09c.647 0 1.172-.525 1.172-1.172v-16.205c0-.647-.525-1.172-1.172-1.172z"/></defs><g><g transform="translate(-740 -1503)"><g><use fill="#cdced2" xlink:href="#2jnsa"/></g><g><use fill="#cdced2" xlink:href="#2jnsb"/></g></g></g></svg>