<svg xmlns="http://www.w3.org/2000/svg" xmlns:xlink="http://www.w3.org/1999/xlink" width="41" height="40" viewBox="0 0 41 40"><defs><path id="vu39a" d="M651.884 1647.622l-3.382-3.378a12.849 12.849 0 0 0 2.939-7.08h4.785a17.594 17.594 0 0 1-4.342 10.458zm-12.112 6.004v-4.785a12.824 12.824 0 0 0 7.072-2.94l3.378 3.383a17.571 17.571 0 0 1-10.45 4.342zm-11.719-17.621c0-5.817 4.733-10.552 10.552-10.552 5.816 0 10.552 4.732 10.552 10.552 0 5.814-4.73 10.552-10.552 10.552-5.817 0-10.552-4.733-10.552-10.552zm9.375 17.621a17.571 17.571 0 0 1-10.45-4.342l3.378-3.382a12.825 12.825 0 0 0 7.072 2.939zm-16.444-16.454h4.785a12.824 12.824 0 0 0 2.94 7.072l-3.383 3.378a17.571 17.571 0 0 1-4.342-10.45zm4.342-12.794l3.382 3.378a12.824 12.824 0 0 0-2.939 7.072h-4.785a17.571 17.571 0 0 1 4.342-10.45zm12.102-5.994v4.785a12.824 12.824 0 0 0-7.072 2.94l-3.378-3.383a17.571 17.571 0 0 1 10.45-4.342zm2.344 0a17.571 17.571 0 0 1 10.45 4.342l-3.378 3.382a12.824 12.824 0 0 0-7.072-2.939zm16.454 16.444h-4.785a12.824 12.824 0 0 0-2.94-7.072l3.383-3.378a17.571 17.571 0 0 1 4.342 10.45zM638.6 1616c-11.013 0-20 8.988-20 20 0 11.013 8.988 20 20 20 11.013 0 20-8.988 20-20 0-11.013-8.988-20-20-20z"/><path id="vu39b" d="M639.015 1641.35c-3.075 0-5.415-2.1-5.415-5.175 0-3.09 2.34-5.175 5.415-5.175 2.415 0 3.72 1.365 4.365 2.67l-2.22 1.065c-.33-.795-1.185-1.455-2.145-1.455-1.635 0-2.79 1.245-2.79 2.895 0 1.635 1.155 2.895 2.79 2.895.96 0 1.815-.66 2.145-1.455l2.22 1.05c-.645 1.275-1.95 2.685-4.365 2.685z"/></defs><g><g transform="translate(-618 -1616)"><g><g><use fill="#cdced2" xlink:href="#vu39a"/></g></g><g><use fill="#cdced2" xlink:href="#vu39b"/></g></g></g></svg>