<svg xmlns="http://www.w3.org/2000/svg" xmlns:xlink="http://www.w3.org/1999/xlink" width="26" height="42" viewBox="0 0 26 42"><defs><path id="tdmia" d="M263.4 1652.849v-4.955h20.057v4.955c0 .604-.49 1.102-1.102 1.102h-17.853c-.604 0-1.102-.49-1.102-1.102zm1.102-34.849h17.861c.604 0 1.102.49 1.102 1.102v2.09H263.4v-2.09c0-.612.498-1.102 1.102-1.102zm-1.102 5.192h20.057v22.71H263.4zm22.065 29.657v-33.747a3.106 3.106 0 0 0-3.102-3.102h-17.861a3.106 3.106 0 0 0-3.102 3.102v33.755a3.106 3.106 0 0 0 3.102 3.102h17.861a3.118 3.118 0 0 0 3.102-3.11z"/><path id="tdmib" d="M275.461 1650h-4.057a1.003 1.003 0 1 0 0 2.008h4.057a1.003 1.003 0 1 0 0-2.008z"/></defs><g><g transform="translate(-260 -1615)"><g><use fill="#28ce7a" xlink:href="#tdmia"/><use fill="#fff" fill-opacity="0" stroke="#28ce7a" stroke-miterlimit="50" stroke-width=".5" xlink:href="#tdmia"/></g><g><use fill="#28ce7a" xlink:href="#tdmib"/></g></g></g></svg>