<svg xmlns="http://www.w3.org/2000/svg" xmlns:xlink="http://www.w3.org/1999/xlink" width="41" height="40" viewBox="0 0 41 40"><defs><path id="qa1ua" d="M514.842 1635.173a1.172 1.172 0 0 0-1.657 0l-3.86 3.86-1.514-1.516a1.172 1.172 0 1 0-1.658 1.657l2.344 2.344a1.168 1.168 0 0 0 1.657 0l4.688-4.687c.457-.458.457-1.2 0-1.658z"/><path id="qa1ub" d="M514.842 1644.543a1.172 1.172 0 0 0-1.657 0l-3.86 3.86-1.514-1.516a1.172 1.172 0 1 0-1.658 1.657l2.344 2.344a1.168 1.168 0 0 0 1.657 0l4.688-4.687c.457-.458.457-1.2 0-1.658z"/><path id="qa1uc" d="M514.842 1626.173a1.172 1.172 0 0 0-1.657 0l-3.86 3.86-1.514-1.516a1.172 1.172 0 1 0-1.658 1.657l2.344 2.344a1.168 1.168 0 0 0 1.657 0l4.688-4.687c.457-.458.457-1.2 0-1.658z"/><path id="qa1ud" d="M538.513 1631.004l-2.486 2.486-1.658-1.658 2.486-2.486a1.175 1.175 0 0 1 1.658 0c.457.457.457 1.2 0 1.658zm-14.087 14.087l-1.657-1.657 9.943-9.944 1.657 1.657zm-3.314 0l1.657 1.657-.633.633-2.486.828.829-2.486zm6.036 7.393c0 .646-.526 1.172-1.173 1.172h-21.259a1.174 1.174 0 0 1-1.172-1.172v-30.625c0-.646.526-1.171 1.172-1.171h3.719a3.523 3.523 0 0 0 3.315 2.343h7.19c1.529 0 2.833-.98 3.316-2.343h3.72c.645 0 1.172.525 1.172 1.171v13.891l-8.516 8.512a1.177 1.177 0 0 0-.284.458l-1.657 4.972a1.172 1.172 0 0 0 1.482 1.482l4.974-1.657c.173-.058.33-.155.46-.283l3.54-3.54zm-15.4-34.14h7.195a1.176 1.176 0 0 1 0 2.354h-7.195a1.176 1.176 0 0 1 0-2.354zm28.422 9.345a3.52 3.52 0 0 0-4.972 0l-5.717 5.717v-11.547a3.52 3.52 0 0 0-3.515-3.515h-3.718a3.521 3.521 0 0 0-3.314-2.344h-7.187c-1.527 0-2.83.98-3.314 2.344h-3.717a3.52 3.52 0 0 0-3.516 3.515v30.625a3.52 3.52 0 0 0 3.516 3.516h21.25a3.52 3.52 0 0 0 3.515-3.516v-9.134l6.546-6.546.828.829a1.17 1.17 0 0 1 0 1.657l-4.971 4.972a1.173 1.173 0 0 0 1.658 1.658l4.971-4.972a3.514 3.514 0 0 0 0-4.972l-.829-.83 2.486-2.485a3.52 3.52 0 0 0 0-4.972z"/></defs><g><g transform="translate(-501 -1616)"><g><use fill="#28ce7a" xlink:href="#qa1ua"/></g><g><use fill="#28ce7a" xlink:href="#qa1ub"/></g><g><g><use fill="#28ce7a" xlink:href="#qa1uc"/></g></g><g><use fill="#28ce7a" xlink:href="#qa1ud"/></g></g></g></svg>