<svg xmlns="http://www.w3.org/2000/svg" xmlns:xlink="http://www.w3.org/1999/xlink" width="40" height="40" viewBox="0 0 40 40"><defs><path id="9a8oa" d="M164.8 1639.584c-.844 0-1.678-.084-2.447-.242a15.243 15.243 0 0 0-2.12-3.468c1.028-.54 2.62-.967 4.567-.967 3.58 0 5.865 1.385 5.865 2.338 0 .954-2.285 2.34-5.865 2.34zm5.865 2.354c0 .956-2.285 2.344-5.867 2.344-.414 0-.823-.02-1.223-.059a15.172 15.172 0 0 0-.38-2.37c.522.055 1.057.085 1.603.085 2.343 0 4.399-.505 5.867-1.344v1.344zm0 4.687c0 .956-2.286 2.344-5.867 2.344-.397 0-.79-.018-1.174-.054v-2.335c.387.03.778.045 1.174.045 2.343 0 4.399-.504 5.867-1.344zm-.01 4.688c0 .955-2.282 2.343-5.86 2.343-.76 0-1.507-.067-2.206-.195.45-.651.77-1.397.927-2.202.421.036.849.054 1.28.054 2.34 0 4.393-.505 5.86-1.344zm-12.89 2.343h-18.828c-1.948 0-3.593-1.61-3.593-3.515v-4.688c0-7.15 5.817-12.968 12.968-12.968 5.543 0 10.209 3.484 12.077 8.244l.022.057c.56 1.449.87 3.023.87 4.667v4.688a3.52 3.52 0 0 1-3.516 3.515zm-11.797-25.858h4.688c.646 0 1.172.525 1.172 1.172 0 .646-.526 1.171-1.172 1.171h-4.688a1.173 1.173 0 0 1-1.172-1.171c0-.647.526-1.172 1.172-1.172zm-1.172-8.729l1.944.972c.984.492 2.16.492 3.144 0l1.944-.972v2.87c0 1.527-.98 2.83-2.344 3.314v-.97a1.172 1.172 0 0 0-2.344 0v.97a3.521 3.521 0 0 1-2.344-3.314v-2.87zm20 13.494c-2.432 0-4.695.584-6.213 1.565a15.295 15.295 0 0 0-5.092-3.083 3.515 3.515 0 0 0-.96-5.047 5.837 5.837 0 0 0 1.64-4.06v-4.765c0-.872-.92-1.436-1.696-1.048l-3.639 1.82c-.328.164-.72.164-1.048 0l-3.64-1.82a1.173 1.173 0 0 0-1.695 1.048v4.766c0 1.575.626 3.005 1.64 4.06a3.515 3.515 0 0 0-1.64 2.97c0 .777.253 1.494.68 2.077-5.777 2.09-10.133 7.69-10.133 14.407v4.688a5.77 5.77 0 0 0 1.765 4.152 5.94 5.94 0 0 0 4.172 1.707h18.828c.977 0 1.899-.242 2.71-.667 1.285.437 2.765.667 4.32.667 4.677 0 8.204-2.015 8.204-4.687v-14.062c0-2.673-3.527-4.688-8.203-4.688z"/><path id="9a8ob" d="M144.53 1645.215v-1.266h1.063c-.391-.53-.72-1.109-.72-1.875 0-1.984 1.954-3.234 3.798-3.234 1.734 0 2.968.61 3.625 1.89l-1.766 1.032a1.71 1.71 0 0 0-1.594-1.11c-.922 0-1.64.579-1.64 1.454 0 .796.406 1.28.765 1.843h2.25v1.266h-1.75c0 .094.016.203.016.297 0 .734-.453 1.39-1.016 1.734.235-.078.531-.125.766-.125.906 0 1.265.516 2.031.516.672 0 1.14-.281 1.344-.563l.89 1.766c-.437.437-1.171.781-2.312.781-1.36 0-1.875-.687-2.828-.687-.547 0-1.188.25-1.813.593l-.75-1.515c.985-.469 1.703-1.156 1.703-1.953 0-.297-.078-.578-.187-.844z"/></defs><g><g transform="translate(-133 -1616)"><g><g><use fill="#28ce7a" xlink:href="#9a8oa"/></g></g><g><use fill="#28ce7a" xlink:href="#9a8ob"/></g></g></g></svg>