<svg xmlns="http://www.w3.org/2000/svg" xmlns:xlink="http://www.w3.org/1999/xlink" width="23" height="22" viewBox="0 0 23 22"><defs><path id="jbeva" d="M129.217 2607.729l-1.132 7.105c0 .009-.004.017-.004.025-.05.414-.203 1.676-2.128 1.676h-8.631a1.59 1.59 0 0 1-1.588-1.587v-7.278a2.25 2.25 0 0 0-.02-.292l.105-.033c.308-.089 4.243-1.296 4.243-4.941v-2.924c.418-.043.967-.013 1.352.274.43.32.65.94.65 1.852v3.646c0 .4.325.726.726.726h4.983c.81 0 1.465.658 1.465 1.464 0 .093-.009.19-.021.287zm-14.93 7.532a.755.755 0 0 1-.755.756h-1.33a.755.755 0 0 1-.755-.756v-7.59c0-.419.338-.757.756-.757h1.329c.417 0 .755.338.755.756zm13.477-10.735h-4.258v-2.92c0-1.4-.417-2.417-1.244-3.02-1.3-.954-3.068-.419-3.144-.393a.726.726 0 0 0-.506.692v3.523c0 2.608-3.068 3.515-3.199 3.548-.008.005-.016.005-.02.009l-.35.11a2.19 2.19 0 0 0-1.511-.604h-1.33a2.198 2.198 0 0 0-2.202 2.199v7.578c0 1.215.987 2.202 2.203 2.202h1.329a2.18 2.18 0 0 0 1.464-.561 3.035 3.035 0 0 0 2.325 1.089h8.624c2 0 3.33-1.097 3.561-2.933l1.072-6.73.06-.363a2.924 2.924 0 0 0-2.873-3.426z"/></defs><g><g transform="translate(-109 -2597)"><use fill="#989ba1" xlink:href="#jbeva"/><use fill="#fff" fill-opacity="0" stroke="#989ba1" stroke-miterlimit="50" stroke-width=".5" xlink:href="#jbeva"/></g></g></svg>