<svg xmlns="http://www.w3.org/2000/svg" xmlns:xlink="http://www.w3.org/1999/xlink" width="208" height="24" viewBox="0 0 208 24"><defs><path id="4fl0a" d="M308 34.636a1.264 1.264 0 0 0-.234-.017 3.31 3.31 0 0 0-1.89.597c-.587.397-1.055.947-1.403 1.65v-2.194h-1.152v9.142h1.224V38.13c.252-.737.684-1.317 1.296-1.738.611-.42 1.331-.643 2.159-.667zm-14.523 3.207c.18-.451.426-.847.738-1.186.312-.34.672-.606 1.08-.8a3.03 3.03 0 0 1 1.314-.29c.468 0 .908.097 1.322.29.414.194.777.457 1.09.791.311.334.557.726.737 1.177.18.45.27.928.27 1.432a3.806 3.806 0 0 1-1.008 2.609 3.508 3.508 0 0 1-1.089.79c-.414.193-.854.29-1.322.29a3.17 3.17 0 0 1-1.323-.281 3.29 3.29 0 0 1-1.08-.782 3.871 3.871 0 0 1-.729-1.16 3.74 3.74 0 0 1-.27-1.431c0-.515.09-.999.27-1.45zm5.012 5.78a4.571 4.571 0 0 0 2.439-2.54 4.857 4.857 0 0 0 .342-1.809c0-.644-.117-1.253-.351-1.827a4.773 4.773 0 0 0-.972-1.51 4.687 4.687 0 0 0-1.476-1.037 4.468 4.468 0 0 0-1.862-.386c-.672 0-1.29.128-1.854.386a4.717 4.717 0 0 0-1.466 1.036 4.773 4.773 0 0 0-.972 1.511 4.793 4.793 0 0 0-.351 1.827c0 .633.114 1.236.342 1.81a4.598 4.598 0 0 0 2.43 2.539 4.539 4.539 0 0 0 1.87.377c.685 0 1.311-.126 1.881-.378zm-8.854-.36c.66-.493.991-1.16.991-2.004 0-.386-.078-.714-.234-.983a1.962 1.962 0 0 0-.694-.685 5.045 5.045 0 0 0-1.144-.492 24.13 24.13 0 0 0-1.586-.422 15.97 15.97 0 0 1-1.072-.272 3.423 3.423 0 0 1-.73-.299 1.064 1.064 0 0 1-.414-.395c-.084-.152-.126-.352-.126-.597 0-.293.06-.548.18-.765.12-.216.285-.395.495-.535.21-.141.454-.244.73-.308.276-.064.577-.097.901-.097.54 0 1.06.088 1.559.264.498.176.922.44 1.27.79l.595-.702c-.36-.375-.835-.677-1.424-.905-.588-.228-1.243-.342-1.964-.342-.48 0-.934.058-1.36.175-.427.117-.8.29-1.118.518a2.49 2.49 0 0 0-.756.87 2.55 2.55 0 0 0-.28 1.212c0 .363.063.665.19.905a1.6 1.6 0 0 0 .576.606c.258.164.586.31.982.44.397.128.865.257 1.406.386.468.105.88.208 1.234.307.354.1.649.214.883.343.234.129.412.278.532.448.12.17.18.383.18.64 0 .551-.225.976-.676 1.275-.45.298-1.054.447-1.81.447a4.84 4.84 0 0 1-1.758-.316 6.143 6.143 0 0 1-1.612-.948l-.56.808a5.186 5.186 0 0 0 1.803 1.019 6.686 6.686 0 0 0 2.144.351c1.117 0 2.006-.246 2.667-.738zm-8.485-10.506V31h-1.223v1.757zm0 11.067v-9.152h-1.223v9.152zm-6.73 0l3.815-9.152h-1.188l-3.239 8.046-3.221-8.046h-1.26l3.815 9.152zm-12.534-1.177a3.564 3.564 0 0 1-1.107-.799 3.753 3.753 0 0 1-.738-1.168 3.714 3.714 0 0 1-.27-1.406c0-.468.078-.925.234-1.37a3.7 3.7 0 0 1 .675-1.186 3.444 3.444 0 0 1 1.053-.834c.408-.211.864-.316 1.368-.316.324 0 .654.058.99.175.335.117.65.281.944.492.294.21.555.454.783.73.228.274.402.57.522.886v2.829a1.924 1.924 0 0 1-.387.887 3.28 3.28 0 0 1-.765.72c-.3.205-.62.366-.963.483a2.978 2.978 0 0 1-.962.176c-.492 0-.951-.1-1.377-.299zm3.093.826a4.06 4.06 0 0 0 1.513-1.423v.896c0 .258.108.477.325.659.216.181.468.272.756.272.108 0 .252-.018.433-.053V42.77c-.289 0-.433-.164-.433-.492V31h-1.225v5.586a4.64 4.64 0 0 0-1.441-1.466c-.613-.404-1.315-.606-2.108-.606a3.91 3.91 0 0 0-1.72.377 4.188 4.188 0 0 0-1.351 1.028c-.379.433-.676.94-.892 1.52a5.211 5.211 0 0 0-.324 1.835c0 .621.11 1.215.333 1.783.222.568.531 1.07.928 1.502.396.434.87.782 1.423 1.046a4.13 4.13 0 0 0 1.801.395c.685 0 1.346-.176 1.982-.527zM249.1 38.958l2.61-6.166 2.573 6.166zm-3.257 4.866h1.35l1.637-3.9h5.74l1.656 3.9h1.332l-5.309-12.473h-1.062zm-.468-9.31a.986.986 0 0 0-.19-.018h-.296c-.252 0-.513.05-.783.15-.27.099-.537.242-.8.43a4.54 4.54 0 0 0-.738.657 4.19 4.19 0 0 0-.594.851V34.62h-2.214v9.195h2.412v-5.563c.252-.526.665-.92 1.241-1.184.576-.263 1.23-.4 1.962-.413zm-14.469 3.945a2.51 2.51 0 0 1 .243-.935c.138-.283.315-.524.531-.724.216-.2.465-.356.747-.467.282-.112.585-.168.909-.168.66 0 1.22.209 1.682.626.462.418.723.974.783 1.668zm5.166 4.865c.761-.451 1.316-1.028 1.663-1.73l-2.067-.563c-.156.375-.447.676-.872.905a2.828 2.828 0 0 1-1.357.342c-.312 0-.612-.052-.9-.158a2.394 2.394 0 0 1-1.33-1.177 2.684 2.684 0 0 1-.27-.966h7.282c.024-.094.039-.21.045-.351.006-.14.009-.287.009-.44 0-.62-.111-1.218-.333-1.791a4.392 4.392 0 0 0-.97-1.511 4.738 4.738 0 0 0-1.547-1.037c-.605-.257-1.291-.386-2.058-.386-.767 0-1.46.129-2.077.386a4.726 4.726 0 0 0-1.573 1.046 4.51 4.51 0 0 0-.989 1.528 5.023 5.023 0 0 0-.341 1.853c0 .633.117 1.236.35 1.81.234.574.567 1.077.998 1.51.432.434.953.776 1.564 1.028.612.252 1.295.378 2.05.378 1.054 0 1.962-.225 2.723-.676zm-8.117.5l-3.761-5.288 3.51-3.9h-2.574l-3.78 4.146V31h-2.41v12.824h2.41v-2.74l1.296-1.248 2.736 3.988zm-17.24-1.94a1.246 1.246 0 0 1-.468-.993c0-.422.198-.77.594-1.046.396-.275.906-.413 1.53-.413.312 0 .636.033.971.097.336.064.648.15.936.255v1.054c0 .246-.132.468-.396.667-.204.235-.489.422-.854.563a3.21 3.21 0 0 1-1.161.21c-.456 0-.84-.131-1.152-.395zm2.4 1.694c.6-.28 1.11-.69 1.53-1.23l.054.51c.06.328.214.592.46.79.246.2.597.3 1.054.3.3 0 .654-.042 1.063-.124v-2.002c-.205-.012-.352-.07-.442-.176-.09-.105-.135-.281-.135-.527v-2.864c0-1.23-.375-2.17-1.126-2.82-.75-.65-1.804-.974-3.162-.974-1.405 0-2.714.392-3.927 1.177l.739 1.493c.504-.34.997-.597 1.477-.773a4.27 4.27 0 0 1 1.477-.263c.697 0 1.222.164 1.577.491.354.328.531.797.531 1.406v.527a5.125 5.125 0 0 0-1.072-.299 7.16 7.16 0 0 0-1.234-.105c-.588 0-1.129.073-1.621.22a4.152 4.152 0 0 0-1.27.606 2.78 2.78 0 0 0-.829.94c-.198.368-.297.77-.297 1.203 0 .421.08.808.243 1.16.162.35.387.658.676.922.288.263.63.468 1.026.614.397.147.823.22 1.28.22a4.49 4.49 0 0 0 1.927-.422zm-6.62-5.498a7.43 7.43 0 0 0-.118-1.318 3.402 3.402 0 0 0-.422-1.16 2.313 2.313 0 0 0-.864-.825c-.371-.21-.845-.316-1.42-.316-.756 0-1.427.167-2.014.5-.588.334-1.073.817-1.457 1.45a2.5 2.5 0 0 0-.827-1.388c-.432-.375-1.043-.562-1.835-.562-.779 0-1.471.16-2.077.483a3.559 3.559 0 0 0-1.43 1.379v-1.704h-2.175v9.205h2.41V38.45c.18-.574.482-1.037.908-1.388.425-.352.872-.527 1.34-.527.455 0 .812.17 1.07.51.257.339.386.878.386 1.615v5.165h2.41v-5.358c.18-.574.48-1.04.899-1.396.42-.358.87-.536 1.349-.536.455 0 .812.17 1.07.51.257.339.386.878.386 1.615v5.165h2.41zm-15.665 5.744l-3.761-5.288 3.509-3.9h-2.574l-3.779 4.146V31h-2.411v12.824h2.411v-2.74l1.296-1.248 2.735 3.988zm-17.843-5.689c.126-.34.3-.633.522-.88.222-.246.483-.44.783-.58.3-.141.624-.211.972-.211a2.33 2.33 0 0 1 1.755.774c.221.246.395.54.521.88.126.34.189.71.189 1.109 0 .41-.063.786-.189 1.126-.126.34-.3.634-.522.88a2.33 2.33 0 0 1-1.754.774 2.33 2.33 0 0 1-1.755-.774 2.718 2.718 0 0 1-.522-.871 3.149 3.149 0 0 1-.189-1.118c0-.399.063-.768.19-1.109zm4.346 5.479a4.554 4.554 0 0 0 1.548-1.046c.42-.439.743-.945.971-1.52a4.857 4.857 0 0 0 .342-1.809c0-.644-.114-1.253-.342-1.827a4.6 4.6 0 0 0-.98-1.52 4.674 4.674 0 0 0-1.548-1.045c-.606-.257-1.293-.386-2.06-.386-.768 0-1.458.129-2.07.386a4.653 4.653 0 0 0-1.557 1.046 4.6 4.6 0 0 0-.98 1.52 4.903 4.903 0 0 0-.342 1.826c0 .633.114 1.236.342 1.81a4.6 4.6 0 0 0 .98 1.52c.426.438.945.787 1.557 1.045.612.257 1.302.386 2.07.386.767 0 1.457-.129 2.069-.386zm-15.251-5.479c.126-.34.3-.633.522-.88.221-.246.482-.44.782-.58.3-.141.624-.211.972-.211s.672.067.972.202c.3.135.56.325.783.572.222.246.396.54.522.88.126.34.189.71.189 1.109 0 .41-.063.786-.19 1.126-.125.34-.3.634-.521.88a2.33 2.33 0 0 1-1.755.774 2.33 2.33 0 0 1-1.755-.774 2.718 2.718 0 0 1-.521-.871 3.149 3.149 0 0 1-.19-1.118c0-.399.064-.768.19-1.109zm4.346 5.479a4.554 4.554 0 0 0 1.547-1.046c.42-.439.744-.945.972-1.52a4.857 4.857 0 0 0 .342-1.809c0-.644-.114-1.253-.342-1.827a4.6 4.6 0 0 0-.98-1.52 4.674 4.674 0 0 0-1.548-1.045c-.606-.257-1.293-.386-2.06-.386-.769 0-1.459.129-2.07.386a4.653 4.653 0 0 0-1.557 1.046 4.6 4.6 0 0 0-.98 1.52 4.903 4.903 0 0 0-.343 1.826c0 .633.114 1.236.342 1.81a4.6 4.6 0 0 0 .981 1.52c.426.438.945.787 1.557 1.045.611.257 1.301.386 2.07.386.767 0 1.457-.129 2.069-.386zm-12.518-10.19c.396 0 .73.141 1 .423.271.282.406.664.406 1.146 0 .493-.147.881-.442 1.163a1.494 1.494 0 0 1-1.072.423h-3.319v-3.155zm1.756 7.361c-.084.2-.198.372-.342.518-.144.147-.315.261-.513.343-.198.082-.41.123-.638.123h-3.69v-3.285h3.816c.215 0 .413.044.593.132.18.087.336.207.468.36.132.152.237.33.315.535.078.205.117.42.117.642 0 .222-.042.433-.126.632zm1.989-2.222c-.426-.545-1.005-.922-1.737-1.133a2.828 2.828 0 0 0 1.368-1.186 3.334 3.334 0 0 0 .26-2.864 3.32 3.32 0 0 0-.584-1.019 2.997 2.997 0 0 0-.918-.729 2.571 2.571 0 0 0-1.206-.28H148v12.472h6.173c.563 0 1.094-.07 1.592-.21.498-.141.936-.346 1.314-.615.378-.27.675-.604.89-1.002.217-.398.325-.86.325-1.388 0-.82-.213-1.502-.64-2.046z"/><path id="4fl0b" d="M120.055 26L115.1 38.686l2.15 6.289 1.157-3.633 4.208-11.216 4.207 11.216h-6.041v3.633h7.2l1.718 4.549h4.664L125.175 26z"/><path id="4fl0d" d="M113.793 35.475c.787-.957.96-1.642.96-3.546 0-2.719-3.024-5.529-5.197-5.529l-9.556.014V49.99l11.51.01c4.074 0 7.377-3.399 7.377-7.497a7.386 7.386 0 0 0-5.094-7.03m-2.917 11.236h-7.264l.006-17.143s7.583-1.889 7.644 3.623c0 0 .182 2.779-2.892 2.779-.039.566.731 2.853 1.162 2.717 5.462-2.305 5.87 3.47 5.87 3.47 0 3.98-4.526 4.554-4.526 4.554"/><linearGradient id="4fl0c" x1="115.1" x2="133.38" y1="37.76" y2="37.76" gradientUnits="userSpaceOnUse"><stop offset="0" stop-color="#28ce7a"/><stop offset="1" stop-color="#0daa5a"/></linearGradient></defs><g><g transform="translate(-100 -26)"><use fill="#fff" xlink:href="#4fl0a"/></g><g transform="translate(-100 -26)"><use fill="url(#4fl0c)" xlink:href="#4fl0b"/></g><g clip-path="url(#clip-56D30C5B-F752-4943-9BF3-23B3BC5A7F3A)" transform="translate(-100 -26)"><use fill="#fff" xlink:href="#4fl0d"/></g></g></svg>