<svg xmlns="http://www.w3.org/2000/svg" xmlns:xlink="http://www.w3.org/1999/xlink" width="22" height="22" viewBox="0 0 22 22"><defs><path id="1utka" d="M680.887 2866.53h-7.531a.586.586 0 0 0 0 1.172h7.531a.586.586 0 0 0 0-1.172z"/><path id="1utkb" d="M680.887 2870.3h-7.531a.586.586 0 0 0 0 1.172h7.531a.586.586 0 0 0 0-1.172z"/><path id="1utkc" d="M687.828 2870.297h-2.594v-6.945a.586.586 0 0 0-.586-.586h-10.71v-2.594h13.89zm-3.765 3.766h-6.946a.586.586 0 0 0-.414.171l-2.765 2.765v-2.35a.586.586 0 0 0-.586-.586h-3.18v-10.126h13.89zm4.351-15.063h-15.062a.586.586 0 0 0-.586.586v3.18h-3.18a.586.586 0 0 0-.586.586v11.296c0 .324.262.586.586.586h3.18v3.18a.586.586 0 0 0 1 .414l3.594-3.594h7.288a.586.586 0 0 0 .586-.586v-3.18h3.18a.586.586 0 0 0 .586-.585v-11.297a.586.586 0 0 0-.586-.586z"/></defs><g><g transform="translate(-668 -2858)"><use fill="#989ba1" xlink:href="#1utka"/><use fill="#fff" fill-opacity="0" stroke="#989ba1" stroke-miterlimit="50" stroke-width=".5" xlink:href="#1utka"/></g><g transform="translate(-668 -2858)"><use fill="#989ba1" xlink:href="#1utkb"/><use fill="#fff" fill-opacity="0" stroke="#989ba1" stroke-miterlimit="50" stroke-width=".5" xlink:href="#1utkb"/></g><g transform="translate(-668 -2858)"><use fill="#989ba1" xlink:href="#1utkc"/><use fill="#fff" fill-opacity="0" stroke="#989ba1" stroke-miterlimit="50" stroke-width=".5" xlink:href="#1utkc"/></g></g></svg>