<svg xmlns="http://www.w3.org/2000/svg" xmlns:xlink="http://www.w3.org/1999/xlink" width="22" height="22" viewBox="0 0 22 22"><defs><path id="jclda" d="M691.887 2606.53h-7.531a.586.586 0 0 0 0 1.172h7.531a.586.586 0 0 0 0-1.172z"/><path id="jcldb" d="M691.887 2610.3h-7.531a.586.586 0 0 0 0 1.172h7.531a.586.586 0 0 0 0-1.172z"/><path id="jcldc" d="M698.828 2610.297h-2.594v-6.945a.586.586 0 0 0-.586-.586h-10.71v-2.594h13.89zm-3.765 3.766h-6.946a.586.586 0 0 0-.414.171l-2.765 2.765v-2.35a.586.586 0 0 0-.586-.586h-3.18v-10.126h13.89zm4.351-15.063h-15.062a.586.586 0 0 0-.586.586v3.18h-3.18a.586.586 0 0 0-.586.586v11.296c0 .324.262.586.586.586h3.18v3.18a.586.586 0 0 0 1 .414l3.594-3.594h7.288a.586.586 0 0 0 .586-.586v-3.18h3.18a.586.586 0 0 0 .586-.585v-11.297a.586.586 0 0 0-.586-.586z"/></defs><g><g transform="translate(-679 -2598)"><use fill="#28ce7a" xlink:href="#jclda"/><use fill="#fff" fill-opacity="0" stroke="#28ce7a" stroke-miterlimit="50" stroke-width=".5" xlink:href="#jclda"/></g><g transform="translate(-679 -2598)"><use fill="#28ce7a" xlink:href="#jcldb"/><use fill="#fff" fill-opacity="0" stroke="#28ce7a" stroke-miterlimit="50" stroke-width=".5" xlink:href="#jcldb"/></g><g transform="translate(-679 -2598)"><use fill="#28ce7a" xlink:href="#jcldc"/><use fill="#fff" fill-opacity="0" stroke="#28ce7a" stroke-miterlimit="50" stroke-width=".5" xlink:href="#jcldc"/></g></g></svg>