<svg xmlns="http://www.w3.org/2000/svg" xmlns:xlink="http://www.w3.org/1999/xlink" width="65" height="65" viewBox="0 0 65 65"><defs><path id="lqj3a" d="M447 4166.81a6.5 6.5 0 0 1 13 0 6.5 6.5 0 0 1-13 0z"/><path id="lqj3b" d="M421 4172.5c0-17.95 14.55-32.5 32.5-32.5s32.5 14.55 32.5 32.5-14.55 32.5-32.5 32.5-32.5-14.55-32.5-32.5z"/><path id="lqj3c" d="M444.56 4181.4c0-2.22 4.003-4.02 8.94-4.02 4.937 0 8.94 1.8 8.94 4.02 0 2.22-4.003 4.02-8.94 4.02-4.937 0-8.94-1.8-8.94-4.02z"/><clipPath id="lqj3d"><use fill="#fff" xlink:href="#lqj3a"/></clipPath></defs><g><g transform="translate(-421 -4140)"><use fill="#323232" xlink:href="#lqj3b"/></g><g transform="translate(-421 -4140)"><use fill="#fff" fill-opacity="0" stroke="#fff" stroke-linecap="round" stroke-miterlimit="50" stroke-width="2.5" xlink:href="#lqj3c"/></g><g transform="translate(-421 -4140)"><use fill="#fff" fill-opacity="0" stroke="#fff" stroke-miterlimit="50" stroke-width="5" clip-path="url(&quot;#lqj3d&quot;)" xlink:href="#lqj3a"/></g></g></svg>