<svg xmlns="http://www.w3.org/2000/svg" xmlns:xlink="http://www.w3.org/1999/xlink" width="17" height="17" viewBox="0 0 17 17"><defs><path id="we38a" d="M1048.788 43.028a6.246 6.246 0 0 1-6.242-6.239 6.25 6.25 0 0 1 6.242-6.243 6.252 6.252 0 0 1 6.242 6.243c0 3.44-2.802 6.239-6.242 6.239zm8.986 1.66l-2.963-2.962A7.79 7.79 0 0 0 1048.788 29a7.788 7.788 0 0 0-7.788 7.789c0 4.3 3.485 7.789 7.788 7.789 1.875 0 3.59-.66 4.933-1.762l2.963 2.958a.77.77 0 1 0 1.09-1.087z"/></defs><g><g transform="translate(-1041 -29)"><use fill="#fff" xlink:href="#we38a"/></g></g></svg>