<svg xmlns="http://www.w3.org/2000/svg" xmlns:xlink="http://www.w3.org/1999/xlink" width="22" height="22" viewBox="0 0 22 22"><defs><path id="4283a" d="M721.364 595.048a4.898 4.898 0 0 1-.055-.7c0-.187.015-.373.033-.57a6.27 6.27 0 0 1 .645-2.234c.407-.82.961-1.465 1.542-2.047l.011-.011c.744 1.215 1.16 2.584 1.247 4.106a13.104 13.104 0 0 1-3.423 1.456zm1.815 4.01c-.744-.963-1.258-1.905-1.542-2.826a14.763 14.763 0 0 0 3.084-1.238 8.389 8.389 0 0 1-1.542 4.065zm-5.238 3.51c.405-2.059.678-4.03.82-5.912.449-.011 1.006-.077 1.684-.186.372 1.215 1.017 2.397 1.947 3.547-1.247 1.324-2.734 2.167-4.451 2.55zm-.317-7.072c-.317-.011-.799-.055-1.454-.11.12-.557.167-1.126.174-1.695a6.86 6.86 0 0 0-.021-.678 7.625 7.625 0 0 0-.46-2.024 9.934 9.934 0 0 0-.81-1.718c-.297-.49-.65-.958-1.038-1.411-.782-.914-1.28-1.346-1.837-1.773a8.732 8.732 0 0 1 3.805-.875c.317 0 .558.011.7.022.667 2.407.995 5.11.995 8.118 0 .7-.021 1.41-.054 2.144zm-.962 7.289c-.142 0-.536.022-.678.022a8.525 8.525 0 0 1-3.871-.921c1.837-1.776 3.072-3.563 3.718-5.35.677.076 1.257.13 1.727.142-.164 2.061-.47 4.1-.896 6.107zm-5.638-1.54a8.805 8.805 0 0 1-2.781-3.125 8.563 8.563 0 0 1-1.03-4.131c0-.186.012-.492.045-.918a20.857 20.857 0 0 0 5.223 2.644c.714.245 1.423.449 2.157.602-.602 1.606-1.807 3.246-3.614 4.929zm.017-14.48h.022l.022.01.503.383c.21.16.525.448.94.863.416.415.787.853 1.126 1.312.34.459.644 1.028.94 1.716a6.41 6.41 0 0 1 .548 2.579c0 .459-.055.973-.164 1.53a16.8 16.8 0 0 1-2.056-.568 19.603 19.603 0 0 1-5.424-2.842 8.662 8.662 0 0 1 3.543-4.984zm11.799 1.74c-.011 0-.033.01-.066.044-.085.057-.386.303-.896.93-.256.314-.5.659-.733 1.04-.466.757-.916 1.958-1.017 3.139-.02.23-.033.46-.033.678 0 .35.022.679.077.985-.613.088-1.05.142-1.313.153.033-.777.055-1.531.055-2.254 0-1.301-.062-2.494-.186-3.588-.193-1.696-.448-3.096-.743-4.19a8.762 8.762 0 0 1 4.855 3.063zm2.362 1.607c-.53-1.234-1.239-2.294-2.133-3.182-.888-.883-1.96-1.592-3.193-2.122a9.775 9.775 0 0 0-3.892-.798 9.723 9.723 0 0 0-3.882.798c-1.234.53-2.297 1.236-3.182 2.122a10.064 10.064 0 0 0-2.133 3.182 9.731 9.731 0 0 0-.787 3.882c0 1.356.258 2.659.787 3.893 1.057 2.462 2.857 4.26 5.315 5.314a9.728 9.728 0 0 0 4.986.732c.01.011.033.022.065.022a.694.694 0 0 0 .197-.043c1.185-.264 2.34-.55 3.401-1.127a10.064 10.064 0 0 0 2.756-2.165c.776-.875 1.377-1.88 1.826-3.029a9.813 9.813 0 0 0 .667-3.597 9.714 9.714 0 0 0-.798-3.882z"/></defs><g><g transform="translate(-705 -583)"><use fill="#fff" xlink:href="#4283a"/><use fill="#fff" fill-opacity="0" stroke="#fff" stroke-miterlimit="50" stroke-width=".2" xlink:href="#4283a"/></g></g></svg>