<svg xmlns="http://www.w3.org/2000/svg" xmlns:xlink="http://www.w3.org/1999/xlink" width="22" height="22" viewBox="0 0 22 22"><defs><path id="cl0ma" d="M724.53 244.678a2.169 2.169 0 1 1 0-3.069 2.173 2.173 0 0 1 0 3.07zm-5.115-1.022l-3.751 3.75a.719.719 0 0 1-.674.194l-2.342-.54-1.752-1.753-.54-2.34a.72.72 0 0 1 .193-.675l9.633-9.633a.723.723 0 0 1 1.023 0l4.092 4.092a.724.724 0 0 1 0 1.023l-1.792 1.791a3.613 3.613 0 0 0-4.09 4.09zm-9.689 5.596l-1.023-1.023 1.535-1.534 1.023 1.023zm-2.05 2.046h-.001a.717.717 0 0 1-1.018 0 .725.725 0 0 1 0-1.023l1.018-1.023 1.018 1.023zm17.313-11.171l1.33-1.33a2.169 2.169 0 0 0 0-3.07l-4.091-4.09a2.169 2.169 0 0 0-3.069 0l-9.633 9.632a2.158 2.158 0 0 0-.58 2.022l.497 2.153-2.274 2.274-1.534 1.534a2.172 2.172 0 0 0 0 3.07c.848.847 2.22.847 3.068 0l1.534-1.535h.001l2.274-2.274 2.152.497c.734.169 1.49-.048 2.023-.58l3.29-3.291a3.62 3.62 0 0 0 5.575.563 3.62 3.62 0 0 0-.563-5.575z"/></defs><g><g transform="translate(-705 -231)"><use fill="#fff" xlink:href="#cl0ma"/></g></g></svg>