<svg xmlns="http://www.w3.org/2000/svg" xmlns:xlink="http://www.w3.org/1999/xlink" width="19" height="19" viewBox="0 0 19 19"><defs><path id="24qea" d="M715.851 392.853a1.706 1.706 0 0 0 1.57-2.37l1.7-1.7c.483.665.768 1.482.768 2.366a4.042 4.042 0 0 1-4.038 4.037 4.042 4.042 0 0 1-4.037-4.037 4.042 4.042 0 0 1 4.037-4.038c.884 0 1.701.285 2.367.768l-1.701 1.7a1.706 1.706 0 0 0-2.37 1.57c0 .94.765 1.704 1.704 1.704zm7.564-1.71c0 4.174-3.395 7.569-7.569 7.569-4.173 0-7.568-3.395-7.568-7.568 0-4.174 3.395-7.569 7.568-7.569 1.858 0 3.56.673 4.879 1.787l-1.602 1.602a5.286 5.286 0 0 0-3.277-1.133 5.319 5.319 0 0 0-5.312 5.313 5.319 5.319 0 0 0 5.312 5.312 5.319 5.319 0 0 0 5.313-5.312 5.286 5.286 0 0 0-1.133-3.277l1.602-1.602a7.534 7.534 0 0 1 1.787 4.879zm1.946-8.893h-.611v-.61a.64.64 0 1 0-1.278 0v.985l-.115.114a.64.64 0 0 0-1.23.244v.986l-.488.488a8.814 8.814 0 0 0-5.788-2.16c-4.88 0-8.851 3.97-8.851 8.852a8.826 8.826 0 0 0 2.7 6.358l-1.406 1.075a.64.64 0 0 0 .776 1.015l1.636-1.25a8.803 8.803 0 0 0 5.145 1.653 8.803 8.803 0 0 0 5.146-1.653l1.636 1.25a.636.636 0 0 0 .896-.12.64.64 0 0 0-.12-.895l-1.406-1.075a8.826 8.826 0 0 0 2.7-6.358c0-2.211-.815-4.235-2.16-5.788l.488-.489h.986a.64.64 0 0 0 .244-1.23l.114-.114h.986a.64.64 0 0 0 0-1.278z"/></defs><g><g transform="translate(-707 -381)"><use fill="#fff" xlink:href="#24qea"/></g></g></svg>