<svg xmlns="http://www.w3.org/2000/svg" xmlns:xlink="http://www.w3.org/1999/xlink" width="20" height="20" viewBox="0 0 20 20"><defs><path id="z7xja" d="M715.731 633c-4.031 0-7.311 3.28-7.311 7.311v.793h1.487v-.793a5.83 5.83 0 0 1 5.824-5.824 5.83 5.83 0 0 1 5.824 5.824v.793h1.487v-.793c0-4.031-3.28-7.311-7.311-7.311z"/><path id="z7xjb" d="M709.463 646.926h-1.094a.835.835 0 0 1-.845-.842v-3.393c0-.472.371-.842.845-.842h1.094zm.74-6.566h-1.833a2.332 2.332 0 0 0-2.33 2.33v3.395a2.332 2.332 0 0 0 2.33 2.33h1.834c.41 0 .743-.333.743-.744v-6.567a.743.743 0 0 0-.743-.744z"/><path id="z7xjc" d="M723.93 646.084c0 .472-.37.842-.843.842h-1.09v-5.077h1.09c.473 0 .843.37.843.842zm-.843-5.724h-1.834a.743.743 0 0 0-.743.743v6.568c0 .41.333.743.743.743h1.834a2.332 2.332 0 0 0 2.33-2.33v-3.394a2.332 2.332 0 0 0-2.33-2.33z"/><path id="z7xjd" d="M722.076 647.67a1.886 1.886 0 0 1-1.883 1.884h-1.983v1.487h1.983a3.375 3.375 0 0 0 3.37-3.371h-1.487z"/><path id="z7xje" d="M717.13 651.144a1.224 1.224 0 0 1-.884.371c-.67 0-1.236-.556-1.236-1.214 0-.67.543-1.214 1.211-1.214a1.215 1.215 0 0 1 1.213 1.248c.014.302-.094.59-.303.81zm1.792-.86a2.705 2.705 0 0 0-2.7-2.684 2.704 2.704 0 0 0-2.702 2.701c0 1.49 1.223 2.701 2.726 2.701a2.72 2.72 0 0 0 1.961-.83c.49-.512.743-1.181.715-1.888z"/></defs><g><g transform="translate(-706 -633)"><g><use fill="#fff" xlink:href="#z7xja"/></g><g><use fill="#fff" xlink:href="#z7xjb"/></g><g><use fill="#fff" xlink:href="#z7xjc"/></g><g><use fill="#fff" xlink:href="#z7xjd"/></g><g><use fill="#fff" xlink:href="#z7xje"/></g></g></g></svg>