<svg xmlns="http://www.w3.org/2000/svg" xmlns:xlink="http://www.w3.org/1999/xlink" width="18" height="18" viewBox="0 0 18 18"><defs><path id="sqzia" d="M719.976 147.547l-1.088-1.288 1.325-3.713 1.73-.848 1.893 2.067a7.793 7.793 0 0 1-1.061 3.23zm-.468 2.493l.639-1.38 1.624-.32a7.898 7.898 0 0 1-2.263 1.7zm-1.502.566a7.816 7.816 0 0 1-2.006.269c-.84 0-1.647-.135-2.406-.38l-.708-2.203 1.127-1.355h3.976l1.108 1.313zm-7.502-1.975l1.332.073.387 1.203a7.954 7.954 0 0 1-1.719-1.276zm-.996-1.183a7.823 7.823 0 0 1-1.345-3.683l1.905-2.069 1.737.85 1.308 3.715-1.103 1.326zm-.49-8.063l.317 1.452-1.151 1.236c.112-.96.402-1.865.835-2.688zm4.116-3.712l2.314 1.25v2.203l-3.246 2.37-1.774-.868-.551-2.565a7.902 7.902 0 0 1 3.257-2.39zm2.866-.548c.451 0 .89.046 1.32.12l-1.309.703-1.31-.707c.424-.07.856-.116 1.299-.116zm3.09 7.222l-1.237 3.465h-3.705l-1.22-3.463 3.082-2.247zm3.056-4.271l-.554 2.546-1.768.864-3.252-2.366v-2.195l2.318-1.244a7.896 7.896 0 0 1 3.256 2.395zm.853 1.33c.422.817.705 1.717.818 2.67l-1.13-1.233zM716 134a8.926 8.926 0 0 0-2.994.523 9.023 9.023 0 0 0-4.202 3.094c0 .002-.003.004-.005.008A8.943 8.943 0 0 0 707 143c0 4.962 4.038 9 9 9s9-4.038 9-9-4.038-9-9-9z"/></defs><g><g transform="translate(-707 -134)"><use fill="#fff" xlink:href="#sqzia"/></g></g></svg>