<svg xmlns="http://www.w3.org/2000/svg" xmlns:xlink="http://www.w3.org/1999/xlink" width="20" height="25" viewBox="0 0 20 25"><defs><path id="znkpa" d="M719.007 444.667v-3.47l4.612 1.238zm-1.23-1.327l-6.553 2.333v-8.274l6.554 1.62zm-7.927-9.26a1.102 1.102 0 0 1 0-1.537c.413-.417 1.095-.417 1.53 0a1.062 1.062 0 0 1 0 1.536c-.43.422-1.122.422-1.53 0zm15.69 7.574l-6.533-1.744v-1.372a.623.623 0 0 0-.48-.615l-7.303-1.808v-.57a2.343 2.343 0 0 0 1.228-.838c.324-.412.492-.882.492-1.406 0-.638-.224-1.184-.682-1.632a2.28 2.28 0 0 0-1.652-.669c-.637 0-1.187.22-1.642.67-.45.443-.67.993-.67 1.631 0 .524.157.994.48 1.406.324.414.737.693 1.217.839v17.062h-1.35a.606.606 0 0 0-.615.614c0 .346.268.615.614.615h3.953c.347 0 .626-.27.626-.615a.616.616 0 0 0-.626-.614h-1.373v-5.627l6.544-2.335v1.005c0 .234.088.405.279.524.11.07.223.1.335.1a.44.44 0 0 0 .257-.076l7.024-3.385c.247-.12.357-.334.335-.615-.023-.288-.178-.471-.458-.545z"/></defs><g><g transform="translate(-707 -430)"><use fill="#fff" xlink:href="#znkpa"/><use fill="#fff" fill-opacity="0" stroke="#fff" stroke-miterlimit="50" stroke-width=".1" xlink:href="#znkpa"/></g></g></svg>