<svg xmlns="http://www.w3.org/2000/svg" xmlns:xlink="http://www.w3.org/1999/xlink" width="20" height="21" viewBox="0 0 20 21"><defs><path id="pevga" d="M720.34 552.74h-8.19c-.656 0-1.755-.183-1.755-1.402 0-.521.342-1.12 1.069-2.268l.007-.012c.014-.024 1.463-2.418 2.677-3.512.74-.667 1.875-.68 1.886-.68h.421a.63.63 0 0 0 .036 0c.202.007 1.223.075 1.838.665 1.185 1.143 2.682 3.514 2.697 3.538l.02.03c.774 1.22 1.049 1.745 1.049 2.236 0 1.16-.955 1.404-1.755 1.404zm1.719-4.366c-.197-.31-1.637-2.553-2.868-3.74-1.026-.985-2.563-1.014-2.738-1.014-.015 0-.031 0-.047.002h-.373c-.164 0-1.64.028-2.718.999-1.33 1.2-2.804 3.619-2.907 3.79-.78 1.233-1.258 2.035-1.258 2.927 0 1.607 1.178 2.646 3 2.646h8.19c1.822 0 3-1.04 3-2.649 0-.9-.48-1.7-1.262-2.933a.667.667 0 0 0-.02-.028z"/><path id="pevgb" d="M713.235 536.245c.596 0 1.26.95 1.26 2.316 0 1.366-.664 2.318-1.26 2.318s-1.26-.952-1.26-2.318c0-1.365.664-2.316 1.26-2.316zm0 5.868c1.404 0 2.504-1.562 2.504-3.557 0-1.994-1.1-3.556-2.504-3.556-1.405 0-2.505 1.562-2.505 3.556 0 1.995 1.1 3.557 2.505 3.557z"/><path id="pevgc" d="M708.57 543.9c-.42-.916-.3-1.802.086-1.981a.409.409 0 0 1 .175-.037c.39 0 1.007.44 1.382 1.256.42.914.3 1.8-.084 1.98a.412.412 0 0 1-.175.036c-.39 0-1.008-.44-1.383-1.255zm1.385 2.496c.245 0 .479-.05.698-.15 1.092-.509 1.396-2.102.692-3.63-.546-1.182-1.557-1.976-2.515-1.976-.245 0-.48.05-.697.15-1.094.507-1.399 2.1-.694 3.63.546 1.182 1.557 1.976 2.516 1.976z"/><path id="pevgd" d="M719.251 536.245c.598 0 1.265.95 1.265 2.316 0 1.366-.667 2.318-1.265 2.318-.599 0-1.266-.952-1.266-2.318 0-1.365.667-2.316 1.266-2.316zm-.005 5.868c1.404 0 2.504-1.562 2.504-3.557 0-1.994-1.1-3.556-2.504-3.556-1.405 0-2.506 1.562-2.506 3.556 0 1.995 1.1 3.557 2.506 3.557z"/><path id="pevge" d="M723.918 543.889c-.376.814-.997 1.253-1.389 1.253a.413.413 0 0 1-.174-.035c-.39-.18-.51-1.065-.087-1.977.378-.816.997-1.256 1.388-1.256.065 0 .122.012.175.037.39.18.51 1.064.087 1.978zm.435-3.107a1.648 1.648 0 0 0-.698-.152c-.957 0-1.967.795-2.514 1.977-.707 1.526-.404 3.12.694 3.63.217.1.45.15.696.15.959 0 1.97-.794 2.515-1.976.705-1.529.4-3.123-.693-3.63z"/></defs><g><g transform="translate(-706 -534)"><g><use fill="#fff" xlink:href="#pevga"/><use fill="#fff" fill-opacity="0" stroke="#fff" stroke-miterlimit="50" stroke-width=".2" xlink:href="#pevga"/></g><g><use fill="#fff" xlink:href="#pevgb"/><use fill="#fff" fill-opacity="0" stroke="#fff" stroke-miterlimit="50" stroke-width=".2" xlink:href="#pevgb"/></g><g><use fill="#fff" xlink:href="#pevgc"/><use fill="#fff" fill-opacity="0" stroke="#fff" stroke-miterlimit="50" stroke-width=".2" xlink:href="#pevgc"/></g><g><use fill="#fff" xlink:href="#pevgd"/><use fill="#fff" fill-opacity="0" stroke="#fff" stroke-miterlimit="50" stroke-width=".2" xlink:href="#pevgd"/></g><g><use fill="#fff" xlink:href="#pevge"/><use fill="#fff" fill-opacity="0" stroke="#fff" stroke-miterlimit="50" stroke-width=".2" xlink:href="#pevge"/></g></g></g></svg>