<svg xmlns="http://www.w3.org/2000/svg" xmlns:xlink="http://www.w3.org/1999/xlink" width="18" height="22" viewBox="0 0 18 22"><defs><path id="864ja" d="M723.307 184.95c-.225 1.313-.903 2.316-2.017 2.991a4.532 4.532 0 0 0-1.184-1.353c.183-1.192.63-2.075 1.33-2.625.663-.521 1.433-.644 1.91-.663.045.393.073.993-.04 1.65zm-2.624 7.252c-.155 1.425-.486 2.26-.906 3.317-.175.443-.357.9-.545 1.448-.035.1-.062.216-.085.34-.913-.54-2.07-.845-3.296-.845-1.225 0-2.383.305-3.296.845a2.358 2.358 0 0 0-.084-.34c-.189-.548-.37-1.005-.546-1.448-.42-1.057-.75-1.892-.905-3.317-.17-1.572.023-2.821.577-3.714.31-.502.746-.902 1.297-1.196.154.894.305 1.686.307 1.697l.155.809 2.495-1.134 2.495 1.134.155-.81c.002-.01.153-.802.307-1.696.551.294.987.694 1.298 1.196.553.893.747 2.142.577 3.714zm-2.761 9.185c-.717.429-1.608.493-2.076.493-.467 0-1.359-.064-2.075-.493-.76-.455-1.13-1.202-1.134-2.284.003-.054.006-.144.008-.258.727-.675 1.927-1.087 3.201-1.087s2.474.412 3.201 1.087l.008.258c-.003 1.082-.374 1.83-1.133 2.284zm-7.51-13.446c-1.101-.667-1.777-1.657-2.009-2.948a5.927 5.927 0 0 1-.047-1.693c.478.02 1.247.142 1.91.663.701.55 1.147 1.433 1.33 2.625a4.532 4.532 0 0 0-1.183 1.353zm3.686-2.337c.24-.28.912-.453 1.753-.453.842 0 1.513.174 1.753.453.064.075.133.194.093.452a76.15 76.15 0 0 1-.32 1.878l-1.526-.694-1.526.694a76.15 76.15 0 0 1-.32-1.878c-.04-.258.03-.377.093-.452zm10.429-3.091l-.106-.42-.428-.063c-.075-.012-1.849-.259-3.34.9-.808.627-1.367 1.528-1.671 2.688a1.704 1.704 0 0 0-.394-.858c-.642-.748-1.843-.905-2.737-.905-.894 0-2.095.157-2.737.905a1.704 1.704 0 0 0-.394.858c-.303-1.16-.863-2.061-1.67-2.689-1.492-1.158-3.266-.91-3.341-.9l-.428.064-.106.42a7.05 7.05 0 0 0-.057 2.656c.213 1.245.878 2.9 2.796 3.982-.237.854-.323 1.903-.183 3.19.173 1.6.551 2.553.989 3.656.17.43.346.873.524 1.392.104.3.12 1.159.097 1.673v.028c0 1.946.96 2.928 1.766 3.41.936.56 2.009.676 2.744.676.735 0 1.808-.117 2.744-.676.806-.482 1.766-1.464 1.766-3.41v-.028c-.022-.499-.006-1.375.097-1.673.178-.52.354-.963.524-1.392.438-1.103.816-2.055.99-3.656.14-1.287.053-2.336-.184-3.19 1.918-1.081 2.583-2.737 2.796-3.982a7.05 7.05 0 0 0-.057-2.656z"/></defs><g><g transform="translate(-707 -182)"><use fill="#fff" xlink:href="#864ja"/></g></g></svg>