<svg xmlns="http://www.w3.org/2000/svg" xmlns:xlink="http://www.w3.org/1999/xlink" width="20" height="20" viewBox="0 0 20 20"><defs><path id="lmbva" d="M722.063 298.736h-6.08l1.545-6.238h-8.295a7.08 7.08 0 0 1 2.47-4.469 7.593 7.593 0 0 1 5.88-1.712 7.419 7.419 0 0 1 6.456 6.1 7.277 7.277 0 0 1-1.976 6.32zm-6.75-2.505h-1.993l.691-2.485h1.92zm-.612 2.505h-2.074l.346-1.247h2.039zm-3.379 0h-3.224l.075-.302a1.245 1.245 0 0 1 1.207-.945h2.288zm-1.077 3.888a1.51 1.51 0 0 1-2.65.528 1.514 1.514 0 0 1-.274-1.304l.463-1.864h3.19zm15.026-10.407a8.67 8.67 0 0 0-7.54-7.142 8.84 8.84 0 0 0-6.837 1.997 8.326 8.326 0 0 0-2.973 6.02l-.03.654h4.823l-.693 2.495h-2.639a2.49 2.49 0 0 0-2.42 1.89l-.85 3.412a2.763 2.763 0 0 0 5.344 1.41l.82-2.97h10.297l.181-.174a8.51 8.51 0 0 0 2.517-7.592z"/><clipPath id="lmbvb"><use fill="#fff" xlink:href="#lmbva"/></clipPath></defs><g><g transform="translate(-706 -285)"><use fill="#fff" xlink:href="#lmbva"/><use fill="#fff" fill-opacity="0" stroke="#fff" stroke-miterlimit="50" stroke-width="2" clip-path="url(&quot;#lmbvb&quot;)" xlink:href="#lmbva"/></g></g></svg>