<svg xmlns="http://www.w3.org/2000/svg" xmlns:xlink="http://www.w3.org/1999/xlink" width="22" height="21" viewBox="0 0 22 21"><defs><path id="cqh4a" d="M722.263 351.343a2.656 2.656 0 1 1 0-5.312 2.656 2.656 0 0 1 0 5.312zm-3.32-5.975a2.656 2.656 0 1 1 0-5.312 2.656 2.656 0 0 1 0 5.312zm-3.319 5.975a2.656 2.656 0 1 1 0-5.312 2.656 2.656 0 0 1 0 5.312zm-3.32-5.975a2.656 2.656 0 1 1 0-5.312 2.656 2.656 0 0 1 0 5.312zm-3.319 5.975a2.656 2.656 0 1 1 0-5.312 2.656 2.656 0 0 1 0 5.312zm6.64-17.262a2.656 2.656 0 1 1-.001 5.311 2.656 2.656 0 0 1 0-5.31zm9.961 12.405a3.983 3.983 0 0 0-3.203-1.782 3.983 3.983 0 0 0-3.32-5.975 3.983 3.983 0 1 0-6.885 0 3.983 3.983 0 0 0-3.32 5.975 3.983 3.983 0 1 0 3.447 6.18 3.983 3.983 0 0 0 6.639 0 3.983 3.983 0 0 0 6.642-4.398z"/></defs><g><g transform="translate(-705 -332)"><use fill="#fff" xlink:href="#cqh4a"/></g></g></svg>