<svg xmlns="http://www.w3.org/2000/svg" xmlns:xlink="http://www.w3.org/1999/xlink" width="21" height="21" viewBox="0 0 21 21"><defs><path id="wmj0a" d="M725.253 490.44l-1.488-1.488 1.813-1.812c.22 1.068.114 2.214-.325 3.3zm-1.426 2.159a6.487 6.487 0 0 1-1.33 1.004l-1.69-1.693 2.022-2.028 1.774 1.778a6.666 6.666 0 0 1-.776.939zm-4.125 1.861a5.554 5.554 0 0 1-1.33-.125l1.512-1.497 1.343 1.33a5.895 5.895 0 0 1-1.525.292zm-3.765-1.397a4.614 4.614 0 0 1-.78-1.078l1.934-1.935 1.859 1.86-1.935 1.935a4.675 4.675 0 0 1-1.078-.782zm-1.636 1.637l.065-1.503c.197.277.4.552.645.796.245.243.516.448.794.644zm.229-5.4a5.966 5.966 0 0 1 .29-1.518l1.33 1.34-1.496 1.506a5.358 5.358 0 0 1-.124-1.327zm1.871-4.14c.295-.293.613-.547.941-.773l1.777 1.773-2.03 2.023-1.693-1.69c.28-.474.6-.929 1.005-1.332zm4.375-1.873c.372 0 .738.047 1.097.122l-1.825 1.816-1.497-1.49a5.94 5.94 0 0 1 2.225-.448zm1.13 5.665l-2.027 2.028-1.859-1.858 2.028-2.028zm2.395-4.255c.322.321.57.69.781 1.075l-2.246 2.24-1.858-1.853 2.246-2.241c.386.21.755.456 1.077.779zm-14.007 14.936l-1.859 1.853a.677.677 0 0 1-.93 0 .656.656 0 0 1-.001-.926l1.859-1.854a.657.657 0 0 1 .928.002l.003.002c.123.123.19.286.19.46a.644.644 0 0 1-.19.463zm16.223-13.899a.637.637 0 0 0-.113-.23c-.291-.628-.66-1.225-1.172-1.736-.511-.511-1.108-.88-1.736-1.173a.65.65 0 0 0-.232-.111c-1.868-.776-4.077-.612-5.997.44a.627.627 0 0 0-.298.16c-.004.003-.004.007-.008.011a7.87 7.87 0 0 0-1.49 1.138 7.871 7.871 0 0 0-1.398 1.943.66.66 0 0 0-.124.22 7.307 7.307 0 0 0-.734 2.85l-.248 5.858-2.303 2.303a1.957 1.957 0 0 0-2.229.37l-1.858 1.86a1.973 1.973 0 0 0 0 2.787c.383.384.89.576 1.394.576.505 0 1.01-.192 1.395-.576l1.858-1.858a1.96 1.96 0 0 0 .38-2.24l2.293-2.294 5.857-.248a7.304 7.304 0 0 0 2.847-.734.65.65 0 0 0 .23-.13 7.874 7.874 0 0 0 1.936-1.393 7.73 7.73 0 0 0 1.138-1.491l.01-.007a.64.64 0 0 0 .16-.297c1.052-1.92 1.217-4.13.442-5.998z"/></defs><g><g transform="translate(-706 -482)"><use fill="#fff" xlink:href="#wmj0a"/></g></g></svg>